# xmcd CD database file
#
# Track frame offsets:
#	150
#	15250
#	27191
#	35621
#	41504
#	52716
#	61912
#	73616
#	87234
#	99507
#	107747
#	117872
#	131376
#	141681
#
# Disc length: 1984 seconds
#
# Revision: 0
# Processed by: cddbd v1.4PL0 Copyright (c) Steve Scherf et al.
# Submitted via: CDex 1.40Beta8
#
DISCID=b307be0e
DTITLE=Joel Butler - Cowboys, Criminals and Heroes
DYEAR=1900
DGENRE=Country
TTITLE0=Litttle Joe The Wrangler
TTITLE1=Get Along Little Dogies
TTITLE2=Nine Pound Hammer
TTITLE3=Foggy Mountain Breakdown
TTITLE4=Remember The Alamo
TTITLE5=Cotton-Eyed Joe
TTITLE6=Oh Bury Me Not
TTITLE7=Jesse James
TTITLE8=Take This Hammer
TTITLE9=Old Joe Clark
TTITLE10=Poor Rebel Soldier
TTITLE11=Utah Carol
TTITLE12=Waiting For A Train
TTITLE13=Deep In The Heart Of Texas
EXTD=ID3G: 2
EXTT0=
EXTT1=
EXTT2=
EXTT3=
EXTT4=
EXTT5=
EXTT6=
EXTT7=
EXTT8=
EXTT9=
EXTT10=
EXTT11=
EXTT12=
EXTT13=
PLAYORDER=
